# xmcd
#
# Track frame offsets: 
#        150
#        18013
#        34255
#        48462
#        64834
#        81752
#        100853
#        121990
#        141967
#        162975
#        177719
#        207139
#
# Disc length: 3007 seconds
#
# Revision: 1
# Processed by: cddbd v1.5.2PL0 Copyright (c) Steve Scherf et al.
# Submitted via: ExactAudioCopy v1.0b3
#
DISCID=a30bbd0c
DTITLE=The Answer - Revival
DYEAR=2011
DGENRE=Rock
TTITLE0=Waste Your Tears
TTITLE1=Use Me
TTITLE2=Trouble
TTITLE3=Nowhere Freeway
TTITLE4=Tornado
TTITLE5=Vida (I Want You)
TTITLE6=Caught On The Riverbed
TTITLE7=Destroy Me
TTITLE8=New Day Rising
TTITLE9=Can't Remember, Can't Forget
TTITLE10=One More Revival
TTITLE11=Lights Are Down
EXTD=
EXTT0=
EXTT1=
EXTT2=
EXTT3=
EXTT4=
EXTT5=
EXTT6=
EXTT7=
EXTT8=
EXTT9=
EXTT10=
EXTT11=
PLAYORDER=
